<svg width="24" height="24" viewBox="0 0 24 24" fill="none" xmlns="http://www.w3.org/2000/svg">
    <path fill-rule="evenodd" clip-rule="evenodd" d="M12.7071 2.01164C12.3166 1.62112 11.6834 1.62112 11.2929 2.01164C10.9024 2.40217 10.9024 3.03533 11.2929 3.42586L13.166 5.29894C12.8266 5.28745 12.4401 5.28125 12 5.28125C10.3189 5.28125 8.67547 5.77977 7.27766 6.71376C5.87984 7.64775 4.79037 8.97527 4.14703 10.5284C3.50368 12.0816 3.33535 13.7907 3.66333 15.4395C3.9913 17.0884 4.80085 18.6029 5.9896 19.7917C7.17834 20.9804 8.6929 21.79 10.3417 22.1179C11.9906 22.4459 13.6996 22.2776 15.2528 21.6342C16.806 20.9909 18.1335 19.9014 19.0675 18.5036C20.0015 17.1058 20.5 15.4624 20.5 13.7812V12.7812H18.5V13.7812C18.5 15.0668 18.1188 16.3235 17.4046 17.3925C16.6903 18.4614 15.6752 19.2945 14.4874 19.7865C13.2997 20.2784 11.9928 20.4072 10.7319 20.1564C9.47104 19.9056 8.31285 19.2865 7.40381 18.3774C6.49477 17.4684 5.8757 16.3102 5.6249 15.0493C5.3741 13.7885 5.50282 12.4815 5.99479 11.2938C6.48676 10.1061 7.31988 9.09093 8.3888 8.3767C9.45772 7.66247 10.7144 7.28125 12 7.28125C12.6189 7.28125 13.107 7.29412 13.4898 7.31476L11.2929 9.51164C10.9024 9.90217 10.9024 10.5353 11.2929 10.9259C11.6834 11.3164 12.3166 11.3164 12.7071 10.9259L16.4571 7.17586C16.8476 6.78533 16.8476 6.15217 16.4571 5.76164L12.7071 2.01164Z" fill="white" />
</svg>
    